Sprint_05400001_forces_filt15Hz.mot
version=1
nRows=19
nColumns=19
inDegrees=yes
endheader
time	R_ground_force_vx	R_ground_force_vy	R_ground_force_vz	R_ground_force_px	R_ground_force_py	R_ground_force_pz	R_ground_torque_x	R_ground_torque_y	R_ground_torque_z	L_ground_force_vx	L_ground_force_vy	L_ground_force_vz	L_ground_force_px	L_ground_force_py	L_ground_force_pz	L_ground_torque_x	L_ground_torque_y	L_ground_torque_z	
1.809500	-328.851413	1864.252506	-33.669590	  0.975827	  0.000000	 -0.252547	  0.000000	 19.123371	  0.000000	  0.000000	  0.000000	  0.000000	  0.273507	  0.000000	 -0.336728	  0.000000	  0.000000	  0.000000
1.810000	-335.138319	1879.134745	-27.995669	  0.974792	  0.000000	 -0.252552	  0.000000	 18.687671	  0.000000	  0.000000	  0.000000	  0.000000	  0.275190	  0.000000	 -0.337085	  0.000000	  0.000000	  0.000000
1.810500	-341.382031	1893.761082	-22.346091	  0.973750	  0.000000	 -0.252552	  0.000000	 18.192171	  0.000000	  0.000000	  0.000000	  0.000000	  0.276907	  0.000000	 -0.337410	  0.000000	  0.000000	  0.000000
1.811000	-347.565610	1908.149288	-16.735908	  0.972700	  0.000000	 -0.252549	  0.000000	 17.640932	  0.000000	  0.000000	  0.000000	  0.000000	  0.278625	  0.000000	 -0.337734	  0.000000	  0.000000	  0.000000
1.811500	-353.672407	1922.316988	-11.180050	  0.971641	  0.000000	 -0.252542	  0.000000	 17.038326	  0.000000	  0.000000	  0.000000	  0.000000	  0.280342	  0.000000	 -0.338058	  0.000000	  0.000000	  0.000000
1.812000	-359.686207	1936.281498	 -5.693298	  0.970572	  0.000000	 -0.252532	  0.000000	 16.388998	  0.000000	  0.000000	  0.000000	  0.000000	  0.282060	  0.000000	 -0.338382	  0.000000	  0.000000	  0.000000
1.812500	-365.591365	1950.059674	 -0.290244	  0.969494	  0.000000	 -0.252519	  0.000000	 15.697820	  0.000000	  0.000000	  0.000000	  0.000000	  0.283777	  0.000000	 -0.338707	  0.000000	  0.000000	  0.000000
1.813000	-371.372939	1963.667772	  5.014764	  0.968404	  0.000000	 -0.252505	  0.000000	 14.969847	  0.000000	  0.000000	  0.000000	  0.000000	  0.285495	  0.000000	 -0.339031	  0.000000	  0.000000	  0.000000
1.813500	-377.016811	1977.121341	 10.207696	  0.967303	  0.000000	 -0.252489	  0.000000	 14.210259	  0.000000	  0.000000	  0.000000	  0.000000	  0.287213	  0.000000	 -0.339355	  0.000000	  0.000000	  0.000000
1.814000	-382.509768	1990.435133	 15.274902	  0.966189	  0.000000	 -0.252472	  0.000000	 13.424307	  0.000000	  0.000000	  0.000000	  0.000000	  0.288930	  0.000000	 -0.339679	  0.000000	  0.000000	  0.000000
1.814500	-387.839572	2003.623030	 20.203173	  0.965062	  0.000000	 -0.252455	  0.000000	 12.617263	  0.000000	  0.000000	  0.000000	  0.000000	  0.290648	  0.000000	 -0.340003	  0.000000	  0.000000	  0.000000
1.815000	-392.994991	2016.697975	 24.979783	  0.963921	  0.000000	 -0.252438	  0.000000	 11.794375	  0.000000	  0.000000	  0.000000	  0.000000	  0.292365	  0.000000	 -0.340328	  0.000000	  0.000000	  0.000000
1.815500	-397.965819	2029.671899	 29.592507	  0.962765	  0.000000	 -0.252421	  0.000000	 10.960833	  0.000000	  0.000000	  0.000000	  0.000000	  0.294112	  0.000000	 -0.340592	  0.000000	  0.000000	  0.000000
1.816000	-402.742872	2042.555654	 34.029629	  0.961593	  0.000000	 -0.252406	  0.000000	 10.121743	  0.000000	  0.000000	  0.000000	  0.000000	  0.295859	  0.000000	 -0.340857	  0.000000	  0.000000	  0.000000
1.816500	-407.317977	2055.358936	 38.279945	  0.960404	  0.000000	 -0.252391	  0.000000	  9.282113	  0.000000	  0.000000	  0.000000	  0.000000	  0.297606	  0.000000	 -0.341122	  0.000000	  0.000000	  0.000000
1.817000	-411.683947	2068.090235	 42.332756	  0.959197	  0.000000	 -0.252379	  0.000000	  8.446844	  0.000000	  0.000000	  0.000000	  0.000000	  0.299353	  0.000000	 -0.341386	  0.000000	  0.000000	  0.000000
1.817500	-415.834560	2080.756786	 46.177875	  0.957970	  0.000000	 -0.252368	  0.000000	  7.620719	  0.000000	  0.000000	  0.000000	  0.000000	  0.301099	  0.000000	 -0.341651	  0.000000	  0.000000	  0.000000
1.818000	-419.764517	2093.364537	 49.805644	  0.956723	  0.000000	 -0.252360	  0.000000	  6.808393	  0.000000	  0.000000	  0.000000	  0.000000	  0.302846	  0.000000	 -0.341916	  0.000000	  0.000000	  0.000000
1.818500	-423.469400	2105.918128	 53.206971	  0.955453	  0.000000	 -0.252354	  0.000000	  6.014377	  0.000000	  0.000000	  0.000000	  0.000000	  0.304593	  0.000000	 -0.342180	  0.000000	  0.000000	  0.000000
